<svg id="Layer_1" data-name="Layer 1" xmlns="http://www.w3.org/2000/svg" xmlns:xlink="http://www.w3.org/1999/xlink" viewBox="0 0 128 128"><defs><style>.cls-1{fill:url(#linear-gradient);}</style><linearGradient id="linear-gradient" x1="64" y1="96.73" x2="64" y2="30" gradientUnits="userSpaceOnUse"><stop offset="0" stop-color="#555cee"/><stop offset="1" stop-color="#eb8af9"/></linearGradient></defs><title>Artboard 3 copy</title><path class="cls-1" d="M117,70A19.56,19.56,0,0,1,97,90H77V86H97a15.65,15.65,0,0,0,16-16c0-9.53-7-17-16-17a18.83,18.83,0,0,0-6.29.87l-2.24.86L88,52.36c-.74-4-2.5-8.36-8-8.36-4,0-5.9,1.32-5.9,1.32l-.79-1.25C69.55,38.14,62.43,34,56,34c-9.68,0-17.68,7.26-19,17.26l-.28,2.15L34.58,53a11.66,11.66,0,0,0-2.74-.18h-.67C22.26,52.87,15,60.59,15,70c0,9,7.47,16,17,16v4c-11.78,0-21-8.79-21-20,0-11.6,9-21.11,20.16-21.22h.65c.5,0,1,0,1.54,0C35.69,37.79,44.93,30,56,30c8.42,0,15.79,5.16,19.82,10.65A11.19,11.19,0,0,1,79,40c5.9,0,10.6,3.67,12.44,9.51A27.74,27.74,0,0,1,97,49C108.21,49,117,58.22,117,70ZM77,76.73l2-3.46a48.76,48.76,0,0,0-48,0l2,3.46A44.74,44.74,0,0,1,77,76.73ZM38,83.27l2,3.46a29.6,29.6,0,0,1,30,0l2-3.46A33.56,33.56,0,0,0,38,83.27Zm6,10,2,3.44a17.89,17.89,0,0,1,18,0l2-3.46A21.85,21.85,0,0,0,44,93.28Z"/></svg>