<svg id="Layer_1" data-name="Layer 1" xmlns="http://www.w3.org/2000/svg" xmlns:xlink="http://www.w3.org/1999/xlink" viewBox="0 0 128 128"><defs><style>.cls-1{fill:url(#linear-gradient);}</style><linearGradient id="linear-gradient" x1="64.08" y1="96" x2="64.08" y2="32.01" gradientUnits="userSpaceOnUse"><stop offset="0" stop-color="#19b4ca"/><stop offset="1" stop-color="#88eda0"/></linearGradient></defs><title>Artboard 1 copy</title><path class="cls-1" d="M64.07,96a52.75,52.75,0,0,1-11-1.16C42.77,92.7,32.51,87.58,21.75,79.2a76.72,76.72,0,0,1-12-11.12,6,6,0,0,1,0-8.19c1.16-1.36,2.52-2.7,3.72-3.88A94.19,94.19,0,0,1,36.86,39a64.05,64.05,0,0,1,17.7-6.19A55.08,55.08,0,0,1,75,33.13c10.38,2.17,20.67,7.32,31.45,15.74a76.46,76.46,0,0,1,11.93,11.06,5.7,5.7,0,0,1,1.6,3.26l0,.65a2.39,2.39,0,0,1-.1.69l0,.35a5.68,5.68,0,0,1-1.61,3.27c-1.14,1.33-2.48,2.64-3.66,3.81A94.19,94.19,0,0,1,91.24,89a64.05,64.05,0,0,1-17.7,6.19A54.13,54.13,0,0,1,64.07,96Zm.11-60a55,55,0,0,0-8.94.75,60.45,60.45,0,0,0-16.58,5.82A90.48,90.48,0,0,0,16.29,58.87c-1.19,1.17-2.43,2.39-3.47,3.61a2.07,2.07,0,0,0,0,3A72.12,72.12,0,0,0,24.2,76c10.28,8,20,12.87,29.73,14.89a48.85,48.85,0,0,0,18.9.28,60.18,60.18,0,0,0,16.61-5.82A90.48,90.48,0,0,0,111.81,69.1c1.19-1.17,2.43-2.39,3.47-3.61A1.86,1.86,0,0,0,116,64a1.77,1.77,0,0,0-.63-1.44A72.59,72.59,0,0,0,104,52C93.7,44,84,39.09,74.17,37A48.3,48.3,0,0,0,64.18,36ZM64,58a6,6,0,1,1-6,6A6,6,0,0,1,64,58Zm10.2,2.5a4,4,0,1,1,4-4A4,4,0,0,1,74.2,60.5Zm0-6a2,2,0,1,0,2,2A2,2,0,0,0,74.2,54.5ZM64,90A26,26,0,1,1,90,64,26,26,0,0,1,64,90Zm0-48A22,22,0,1,0,86,64,22,22,0,0,0,64,42Z"/></svg>