<svg xmlns="http://www.w3.org/2000/svg" width="80" height="34" viewBox="0 0 80 34">
  <metadata><?xpacket begin="﻿" id="W5M0MpCehiHzreSzNTczkc9d"?>
<x:xmpmeta xmlns:x="adobe:ns:meta/" x:xmptk="Adobe XMP Core 5.6-c140 79.160451, 2017/05/06-01:08:21        ">
   <rdf:RDF xmlns:rdf="http://www.w3.org/1999/02/22-rdf-syntax-ns#">
      <rdf:Description rdf:about=""/>
   </rdf:RDF>
</x:xmpmeta>
                                                                                                    
                                                                                                    
                                                                                                    
                                                                                                    
                                                                                                    
                                                                                                    
                                                                                                    
                                                                                                    
                                                                                                    
                                                                                                    
                                                                                                    
                                                                                                    
                                                                                                    
                                                                                                    
                                                                                                    
                                                                                                    
                                                                                                    
                                                                                                    
                                                                                                    
                                                                                                    
                           
<?xpacket end="w"?></metadata>
<defs>
    <style>
      .cls-1 {
        fill-rule: evenodd;
      }
    </style>
  </defs>
  <path id="logo" class="cls-1" d="M713.216,81.9h-4.793v-1.98a7.657,7.657,0,0,1-5.7,2.448c-4.84,0-7.476-3.155-7.476-7.767V60.992h4.793V73.8c0,2.587,1.246,4.285,3.977,4.285a4.444,4.444,0,0,0,4.409-3.343V60.992h4.793V81.9ZM718.2,60.992h4.793v1.979a7.759,7.759,0,0,1,5.749-2.447c4.841,0,7.523,3.153,7.523,7.769V81.9h-4.79V69.093c0-2.589-1.293-4.286-4.026-4.286a4.5,4.5,0,0,0-4.456,3.345V81.9H718.2V60.992ZM690.262,61V77.544c0,3.527-.771,6.042-2.679,7.545-1.963,1.549-5.108,2.038-8.583,1.872V82.67c4.51,0.29,6.23-.842,6.23-5.316V61h5.032ZM758.8,75.4c-0.719,4.145-3.834,6.971-8.963,6.971-5.942,0-10.064-4.427-10.064-10.877,0-6.263,4.17-10.972,9.969-10.972,5.99,0,9.25,4.19,9.25,10.313v1.694H744.466c0.143,3.674,2.3,5.886,5.367,5.886,2.3,0,4.026-.989,4.552-3.015H758.8Zm-14.187-6.309h9.634c-0.048-2.544-1.534-4.615-4.456-4.615C747.15,64.48,745.185,66.081,744.609,69.095ZM690.568,55.772A2.823,2.823,0,1,1,687.746,53,2.8,2.8,0,0,1,690.568,55.772Z" transform="translate(-679 -53)"/>
</svg>
