<svg width="25" height="32" viewBox="0 0 25 32" fill="none" xmlns="http://www.w3.org/2000/svg">
<path d="M1 5C0.447715 5 0 5.44772 0 6C0 6.55228 0.447715 7 1 7V5ZM4.64286 9L3.66505 9.20953L4.64286 9ZM4.33877 7.58094L3.36097 7.79047L4.33877 7.58094ZM1 7H2.38317V5H1V7ZM8.61683 21H19.6053V19H8.61683V21ZM23.5058 17.8865L24.9199 11.6649L22.9696 11.2216L21.5556 17.4432L23.5058 17.8865ZM3.36097 7.79047L3.66505 9.20953L5.62066 8.79047L5.31658 7.37141L3.36097 7.79047ZM3.66505 9.20953L5.68342 18.6286L7.63903 18.2095L5.62066 8.79047L3.66505 9.20953ZM21.9945 8H4.64286V10H21.9945V8ZM24.9199 11.6649C25.3465 9.78757 23.9196 8 21.9945 8V10C22.6362 10 23.1118 10.5959 22.9696 11.2216L24.9199 11.6649ZM19.6053 21C21.4729 21 23.0919 19.7076 23.5058 17.8865L21.5556 17.4432C21.3486 18.3538 20.5391 19 19.6053 19V21ZM8.61683 19C8.14529 19 7.73783 18.6706 7.63903 18.2095L5.68342 18.6286C5.97983 20.0118 7.20222 21 8.61683 21V19ZM2.38317 7C2.85471 7 3.26217 7.3294 3.36097 7.79047L5.31658 7.37141C5.02017 5.9882 3.79778 5 2.38317 5V7Z" fill="black"/>
<circle cx="9" cy="25" r="2" fill="black"/>
<circle cx="19" cy="25" r="2" fill="black"/>
</svg>
